<svg xmlns="http://www.w3.org/2000/svg" version="1.1" xmlns:xlink="http://www.w3.org/1999/xlink" xmlns:svgjs="http://svgjs.dev/svgjs" width="1027.17" height="1080"><svg version="1.1" id="SvgjsSvg1001" xmlns="http://www.w3.org/2000/svg" xmlns:xlink="http://www.w3.org/1999/xlink" x="0px" y="0px" viewBox="0 0 1027.17 1080" style="enable-background:new 0 0 1027.17 1080;" xml:space="preserve">
<style type="text/css">
	.st0{fill:#12152B;}
	.st1{fill:#FFFFFF;}
	.st2{fill:#5800FF;}
</style>
<g>
	<g>
		<rect x="734.48" y="982.15" class="st0" width="2.16" height="45.93"></rect>
		<path class="st1" d="M300.99,479.97l0.18,1.57c0.77,6.72,1.48,13.05,2.22,19.61l0.19,1.69h447.08c0.37-3.46,0.71-6.57,1.05-9.78
			l0.21-1.95l11.65-1.27V42.29h-24.49l-1.73-10.5H316.22c-0.45,2.99-0.83,5.59-1.22,8.22l-0.28,1.88l-11.92,1.17
			c-0.24,1.71-0.46,3.33-0.68,4.89l-0.91,6.53l-9.49,1.57v421.02c2.76,0.85,5.14,1.6,7.75,2.42L300.99,479.97z M351.04,91.27
			l10.49-1.34l1.34-12.25h366.06l1.1,12.13l12.41,1.45v352.03l-12.2,1.33l-1.55,10.48H362.51v-2.32l-0.86-8.04
			c-2.72-0.38-5.4-0.75-8.52-1.2l-2.09-0.3V91.27z"></path>
		<path class="st1" d="M394.11,129.44v49.49l13,1.61v38.28c3.98,0.46,7.28,0.84,11.36,1.31l2.15,0.25v49.17l12.96,2.18v38.12
			c1.43,0.29,2.77,0.56,4.13,0.83l7.22,1.45v48.78c3.82,0.42,7.14,0.79,11.38,1.26l2.17,0.24v49.87l13.19,1.24v24.78h20.55v-20.07
			c-3.36-0.38-6.62-0.74-10.76-1.18l-2.17-0.24v-49.89c-3.78-0.35-6.91-0.64-10.95-1.01l-2.21-0.2v-38.37
			c-3.98-0.45-7.14-0.82-10.29-1.18l-2.16-0.25v-42.33h25.41l1.39-12.44l2.05-0.12c7.25-0.42,14.16-0.81,21.07-1.2l1.66-11.93h43.15
			l0.23,2.17c0.36,3.3,0.68,6.23,1,9.16l0.1,0.89l11.95,1.28l0.21,1.95c0.26,2.48,0.51,4.79,0.76,7.08l0.28,2.61h45.35l1.52-12.78
			h24.91l1.26-12.1l10.38-1.37l1.34-11.85l11.9-1.34c0.25-2.07,0.48-4.02,0.71-6.03l0.51-4.32l1.95-0.19
			c3.49-0.35,6.69-0.66,10.04-0.99c0.24-2.13,0.46-4.17,0.68-6.14l0.64-5.8l11.78-1.4l2.42-23.08l1.64-0.42
			c2.93-0.75,5.3-1.36,7.84-2.01l2.02-0.52v-23.58l10.73-1.53v-20.28h-5.27l-0.31,2.86c-0.26,2.41-0.53,4.91-0.84,7.86l-0.23,2.18
			h-51.64c-0.35,3.75-0.63,6.76-0.94,10.17l-0.2,2.22h-68.09l-0.24-2.17c-0.39-3.6-0.75-6.79-1.11-10.06l-11.98-1.22l-0.2-1.97
			c-0.36-3.51-0.68-6.7-1-10.02c-2.86-0.36-5.66-0.71-9.35-1.17l-2.14-0.27v-25.91h-25.33l-0.26-2.14c-0.3-2.51-0.55-4.6-0.79-6.67
			l-0.2-1.66h-45.36l-1.46,11.02h-24.96l-1.43,12.78h-54.21l-0.33-2.05c-3.57-22.32-5.87-32.69-10.1-35.1
			c-2.27-1.29-5.94-0.44-11.06,1.5v30.54c1.58,0.18,3.18,0.36,4.9,0.55L394.11,129.44z M429,180.31h15.13l1.23,12.01
			c1.95,0.21,3.87,0.42,5.88,0.64l6.35,0.69v55.2h-17.43V225.1L429,223.4V180.31z"></path>
		<path class="st2" d="M296.51,483.66c0.7,6.14,1.36,11.99,2.04,18.03l0.68,6.02h455.8l0.23-2.17c0.39-3.63,0.73-6.81,1.07-10.01
			l12.09-1.32V37.42H743.2l-1.74-10.5H312.03l-0.31,2.07c-0.47,3.15-0.87,5.82-1.26,8.43l-11.94,1.17l-0.27,1.9
			c-0.34,2.43-0.65,4.67-0.95,6.8l-0.41,2.98l-10.03,1.67v428.73l1.71,0.53C291.52,482.1,293.96,482.86,296.51,483.66z
			 M291.73,56.05l9.49-1.57l0.91-6.53c0.22-1.56,0.44-3.18,0.68-4.89l11.92-1.17l0.28-1.88c0.38-2.63,0.77-5.23,1.22-8.22h421.11
			l1.73,10.5h24.49v447.55l-11.65,1.27l-0.21,1.95c-0.34,3.21-0.68,6.32-1.05,9.78H303.58l-0.19-1.69
			c-0.74-6.56-1.45-12.89-2.22-19.61l-0.18-1.57l-1.51-0.47c-2.61-0.82-4.99-1.56-7.75-2.42V56.05z"></path>
		<path class="st0" d="M366.09,440.45l1.05,9.79h357.35l1.48-10.04l11.6-1.26V95.59l-12.03-1.41l-1.06-11.64H367.23l-1.28,11.73
			l-10.04,1.28v343.47c2.93,0.41,5.55,0.78,8.3,1.16L366.09,440.45z M376.72,94.16l1.54-0.61c7.46-2.95,12.6-4.19,16.8-1.8
			c6.13,3.49,8.52,13.89,12.17,36.51h45.7l1.43-12.78h25.05l1.46-11.02h53.96l0.7,5.96c0.17,1.44,0.34,2.9,0.53,4.51h25.88v26.48
			c3.44,0.43,6.15,0.77,9.15,1.15l1.93,0.24l0.19,1.93c0.33,3.39,0.65,6.56,0.99,9.96l11.94,1.22l0.22,1.96
			c0.36,3.3,0.71,6.42,1.09,9.85h59.27c0.29-3.19,0.58-6.24,0.95-10.18l0.21-2.21h51.69c0.22-2.05,0.42-3.9,0.61-5.7l0.77-7.2h14.52
			v29.37l-10.73,1.53v23.13l-5.67,1.46c-2.05,0.53-3.99,1.03-6.21,1.6l-2.47,23.58l-11.81,1.4l-0.22,1.95
			c-0.28,2.57-0.58,5.26-0.9,8.12l-0.22,1.96l-1.96,0.19c-3.44,0.33-6.64,0.65-10.05,0.98l-0.05,0.43c-0.31,2.62-0.6,5.15-0.94,7.96
			l-0.23,1.91l-11.87,1.33l-1.33,11.78l-10.35,1.36l-1.31,12.64h-24.98l-1.52,12.78h-54.05l-0.75-6.95
			c-0.18-1.69-0.37-3.38-0.56-5.14l-11.93-1.28l-0.53-4.79c-0.25-2.27-0.5-4.55-0.77-6.99h-34.54l-1.63,11.69l-2,0.11
			c-6.91,0.39-13.8,0.78-21.01,1.19l-1.41,12.68h-24.9v33.12c3.02,0.35,6.22,0.72,10.28,1.18l2.16,0.25v38.27
			c3.75,0.34,6.89,0.63,10.96,1.02l2.21,0.21v49.95c3.98,0.43,7.21,0.79,10.77,1.19l2.16,0.24v29.29h-30.29v-25.22l-13.19-1.24
			v-49.94c-3.99-0.44-7.3-0.81-11.38-1.26l-2.17-0.24v-49.15l-3.31-0.66c-1.96-0.39-3.89-0.78-6.1-1.23l-1.95-0.4v-37.98
			l-12.96-2.18v-48.96c-3.82-0.44-7.13-0.82-11.36-1.31l-2.16-0.25v-38.32l-13-1.61v-49.44l-3.29-0.37
			c-2.51-0.28-4.77-0.53-7.07-0.8l-2.16-0.25V94.16z"></path>
		<path class="st2" d="M361.66,444.75l0.86,8.04v2.32h366.18l1.55-10.48l12.2-1.33V91.26l-12.41-1.45l-1.1-12.13H362.87l-1.34,12.25
			l-10.49,1.34v351.99l2.09,0.3C356.25,443.99,358.94,444.37,361.66,444.75z M355.91,95.56l10.04-1.28l1.28-11.73h357.25l1.06,11.64
			l12.03,1.41v343.33l-11.6,1.26l-1.48,10.04H367.14l-1.05-9.79l-1.88-0.26c-2.75-0.38-5.36-0.75-8.3-1.16V95.56z"></path>
		<path class="st2" d="M385.95,133.42l3.29,0.37v49.44l13,1.61v38.32l2.16,0.25c4.23,0.49,7.54,0.87,11.36,1.31v48.96l12.96,2.18
			v37.98l1.95,0.4c2.2,0.45,4.13,0.83,6.1,1.23l3.31,0.66v49.15l2.17,0.24c4.09,0.45,7.39,0.82,11.38,1.26v49.94l13.19,1.24v25.22
			h30.29v-29.29l-2.16-0.24c-3.56-0.4-6.79-0.76-10.77-1.19V362.5l-2.21-0.21c-4.07-0.38-7.21-0.67-10.96-1.02V323l-2.16-0.25
			c-4.06-0.46-7.26-0.83-10.28-1.18v-33.12h24.9l1.41-12.68c7.2-0.41,14.09-0.8,21.01-1.19l2-0.11l1.63-11.69h34.54
			c0.27,2.45,0.52,4.72,0.77,6.99l0.53,4.79l11.93,1.28c0.19,1.76,0.37,3.46,0.56,5.14l0.75,6.95h54.05l1.52-12.78h24.98l1.31-12.64
			l10.35-1.36l1.33-11.78l11.87-1.33l0.23-1.91c0.34-2.81,0.64-5.34,0.94-7.96l0.05-0.43c3.41-0.34,6.6-0.65,10.05-0.98l1.96-0.19
			l0.22-1.96c0.32-2.86,0.62-5.55,0.9-8.12l0.22-1.95l11.81-1.4l2.47-23.58c2.21-0.57,4.16-1.07,6.21-1.6l5.67-1.46v-23.13
			l10.73-1.53v-29.37h-14.52l-0.77,7.2c-0.2,1.8-0.39,3.65-0.61,5.7h-51.69l-0.21,2.21c-0.37,3.94-0.66,6.99-0.95,10.18h-59.27
			c-0.38-3.43-0.72-6.55-1.09-9.85l-0.22-1.96l-11.94-1.22c-0.35-3.41-0.66-6.57-0.99-9.96l-0.19-1.93l-1.93-0.24
			c-3-0.38-5.71-0.72-9.15-1.15v-26.48h-25.88c-0.19-1.61-0.36-3.06-0.53-4.51l-0.7-5.96h-53.96l-1.46,11.02h-25.05l-1.43,12.78
			h-45.7c-3.65-22.62-6.04-33.02-12.17-36.51c-4.2-2.39-9.34-1.15-16.8,1.8l-1.54,0.61v38.21l2.16,0.25
			C381.18,132.88,383.44,133.14,385.95,133.42z M381.59,97.48c5.12-1.94,8.79-2.79,11.06-1.5c4.23,2.41,6.54,12.78,10.1,35.1
			l0.33,2.05h54.21l1.43-12.78h24.96l1.46-11.02h45.36l0.2,1.66c0.24,2.06,0.49,4.16,0.79,6.67l0.26,2.14h25.33v25.91l2.14,0.27
			c3.68,0.46,6.48,0.81,9.35,1.17c0.33,3.32,0.65,6.51,1,10.02l0.2,1.97l11.98,1.22c0.36,3.27,0.71,6.46,1.11,10.06l0.24,2.17h68.09
			l0.2-2.22c0.31-3.4,0.59-6.42,0.94-10.17h51.64l0.23-2.18c0.31-2.95,0.58-5.46,0.84-7.86l0.31-2.86h5.27v20.28l-10.73,1.53v23.58
			l-2.02,0.52c-2.54,0.65-4.91,1.27-7.84,2.01l-1.64,0.42l-2.42,23.08l-11.78,1.4l-0.64,5.8c-0.22,1.97-0.44,4.01-0.68,6.14
			c-3.35,0.33-6.55,0.64-10.04,0.99l-1.95,0.19l-0.51,4.32c-0.24,2.01-0.46,3.96-0.71,6.03l-11.9,1.34l-1.34,11.85L636,258.17
			l-1.26,12.1h-24.91l-1.52,12.78h-45.35l-0.28-2.61c-0.25-2.3-0.5-4.61-0.76-7.08l-0.21-1.95l-11.95-1.28l-0.1-0.89
			c-0.32-2.93-0.64-5.86-1-9.16l-0.23-2.17h-43.15l-1.66,11.93c-6.9,0.39-13.81,0.78-21.07,1.2l-2.05,0.12l-1.39,12.44H453.7v42.33
			l2.16,0.25c3.15,0.36,6.31,0.73,10.29,1.18v38.37l2.21,0.2c4.04,0.37,7.17,0.66,10.95,1.01v49.89l2.17,0.24
			c4.14,0.45,7.4,0.81,10.76,1.18v20.07h-20.55v-24.78l-13.19-1.24v-49.87l-2.17-0.24c-4.24-0.47-7.56-0.84-11.38-1.26v-48.78
			l-7.22-1.45c-1.36-0.27-2.7-0.54-4.13-0.83v-38.12l-12.96-2.18v-49.17l-2.15-0.25c-4.09-0.48-7.38-0.86-11.36-1.31v-38.28
			l-13-1.61v-49.49l-7.62-0.86c-1.72-0.19-3.32-0.37-4.9-0.55V97.48z"></path>
		<path class="st0" d="M445.03,243.98h7.69v-45.96l-2.01-0.22c-2.67-0.29-5.21-0.56-7.84-0.86l-1.95-0.22l-1.18-11.55h-5.87v34.04
			l11.16,1.69V243.98z"></path>
		<path class="st2" d="M440.16,248.85h17.43v-55.2l-6.35-0.69c-2-0.22-3.93-0.43-5.88-0.64l-1.23-12.01H429v43.09l11.16,1.7V248.85z
			 M433.87,219.22v-34.04h5.87l1.18,11.55l1.95,0.22c2.64,0.29,5.17,0.57,7.84,0.86l2.01,0.22v45.96h-7.69v-23.07L433.87,219.22z"></path>
		<path class="st1" d="M523.79,916.05h47.51l0.85-7.01l7.6-1.55V720.05c-1.22-0.19-2.38-0.36-3.54-0.53l-3.76-0.57l-1.3-7.4h-82.02
			l-0.91,7.9l-8.13,0.89l-0.95,8.08l-8.03,0.89l-0.85,8.09l-8.12,0.84c-0.22,2.16-0.42,4.12-0.62,6.11l-0.19,1.91l-7.04,0.92
			l-0.83,6.98l-7.78,0.82v161.14h46.92l0.93-8.06l8.39-0.76V759.15h21.88V916.05z"></path>
		<polygon class="st1" points="965.39,868.71 886.72,868.71 886.72,829.1 913.58,829.1 913.58,798.17 886.73,798.17 886.73,758.55 
			965.33,758.55 965.33,711.61 839,711.61 839,916.09 965.39,916.09 		"></polygon>
		<path class="st1" d="M265.18,835.86c0.01-37.37,0.03-76.01-0.17-113.89c-0.02-3.16-1.29-7.98-2.14-9.63
			c-12.32-0.63-24.91-0.58-37.09-0.53c-2.7,0.01-5.4,0.02-8.1,0.03c-0.13,1.12-0.26,2.19-0.38,3.23l-0.52,4.36l-7.68,0.89v187.25
			l7.39,1l1.12,7.41h82.15l0.87-7.83l8.08-0.85c0.22-2.18,0.42-4.14,0.62-6.09l0.19-1.9l1.89-0.26c1.88-0.26,3.53-0.49,5.15-0.71
			l0.85-8.09l1.95-0.2c2.18-0.23,4.16-0.44,6.17-0.65l0.83-7l1.95-0.19c2.13-0.2,4.11-0.4,6.15-0.6l0.96-8.91h85.9V711.87h-54.81
			v112.9h-23.1V720.1l-7.54-1.14l-1.28-7.48h-47.87v157.04h-21.56L265.18,835.86z"></path>
		<path class="st1" d="M141.65,711.65H59.24v204.47h47.88V811.11h78.07v-63.98l-7.96-0.84l-0.8-8.11l-7.02-1.05l-0.91-7.91
			l-8.07-0.89l-0.92-8.45h-16.95L141.65,711.65z M137.05,787.1l-6.13,3.72c-0.4,1.67-0.83,3.47-1.32,5.47l-0.45,1.85l-1.91,0h-19.8
			v-39h29.6V787.1z"></path>
		<path class="st1" d="M650.05,759.15h31.8v156.84h47.75V802.81h30.59v113.25h47.45l0.86-7.95l7.82-0.73l0-19.49
			c0.01-42.64,0.02-86.73-0.28-129.96c-0.56-0.88-3.05-2.56-4.08-2.57c-21-0.26-42.31-0.24-62.91-0.22l-18.77,0.01l-0.31-2.06
			c-0.38-2.51-0.65-4.33-0.89-5.95c-2.16-0.22-4.14-0.42-6.14-0.63l-1.97-0.2l-0.84-8.12c-2.15-0.22-4.13-0.42-6.2-0.64l-1.91-0.2
			l-1-7.98l-7.98-1.01l-0.2-1.91c-0.22-2.13-0.42-4.03-0.65-6.13l-0.52-0.4H686.4l-1.03-8.36h-82.81v204.42h47.49V759.15z"></path>
		<path class="st1" d="M971.85,648.38c-0.44-3.91-0.79-7.13-1.14-10.33l-36.3-1.59l-3.2-12.29h-23.58l-0.24-2.16
			c-0.45-3.93-0.82-7.18-1.25-10.92h-25.03l-0.24-2.17c-0.42-3.88-0.78-7.09-1.14-10.39H434.09v7.08l22.94,1.27l1.5,11.92
			c2.09,0.22,4.09,0.43,6.04,0.64l6.21,0.66l1.22,12.53h25.17l0.35,3.65c0.33,3.44,0.6,6.26,0.92,9.58h24.56v23.96h472.3v-19.28
			h-23.2L971.85,648.38z"></path>
		<path class="st1" d="M310.9,606.87l12.64-1.38l1.28-11.91l1.95-0.21c3.52-0.39,6.71-0.73,10.48-1.13v-24.54h464.81v-33.63h-510.4
			V644.9h5.45l1.18-11.66l12.6-1.38V606.87z"></path>
		<path class="st0" d="M1000.23,636.44l-1.9-0.11l-2.29-12.06h-23.54l-0.24-2.17c-0.46-4.16-0.82-7.45-1.24-11.19h-25.45v-12.69
			h-29.48v-11.13H888.6v-14.8l-20.81,0.03v-0.02h-38.41v-63.87h-52.68v-16.82l12.43-1.4v-74.28l-3.96-372.38l-8.07-1.42l-0.24-2.1
			c-0.39-3.37-0.68-5.93-1.01-8.76l-0.91-0.14c-2.42-0.36-4.95-0.74-7.69-1.15l-1.86-0.28l-1.28-12.13h-24.98l-0.24-2.16
			c-0.43-3.81-0.79-6.96-1.17-10.25l-0.03-0.28H186.88l-1.37,12.28h-25l-0.19,1.66c-0.34,3.02-0.66,5.79-1.01,8.91l-0.21,1.86
			l-2.44,0.36c-2.39,0.36-4.87,0.73-7.91,1.19l-1.12,23.15l-7.4,0.94c-1.52,0.19-3.07,0.39-4.7,0.59l-0.35,3.37
			c-0.22,2.14-0.46,4.43-0.72,7.02l-0.22,2.19H95.97l-1.42,12.5l-10.3,1.45l-0.3,2.77c-0.25,2.32-0.52,4.75-0.79,7.32l-0.21,1.97
			l-6.08,0.61c-1.96,0.2-3.9,0.39-5.92,0.59l-1.22,11.93l-11.83,1.29V425.7c3.01,0.35,6.12,0.7,9.72,1.1l1.93,0.22l0.22,1.93
			c0.35,3.09,0.72,6.26,1.16,10l11.98,1.31l1.23,10.35l10.32,1.18l0.3,2.73c0.34,3.07,0.67,6.04,1.05,9.51h38.3l1.33,12.92
			c12.47,1.37,13.27,9.13,13.08,16.15l0,0v14.96h-4.84H19.41l-2.74,10.76l-1.42,0.35c-3.34,0.81-6.68,1.63-10.38,2.53v161.88
			l1.4,0.12c3.37,0.29,6.65,0.58,10.3,0.91l2.11,0.19l0.58,12.26h7.32h7.69h4.87v4.38v2.69V941.6h8.36v11.02h61.51l0.24,5.43
			c0.07,1.52,0.14,3.1,0.21,4.8l0.09,2.07l-8.48,1.74v98.9h21.16v9.57h273.32l0.95-7.41l1.93-0.19c2.07-0.21,4.05-0.41,6.14-0.62
			c0.2-1.95,0.41-3.89,0.64-6.02l0.25-2.36h11.88v16.01h57l1.12-6.87l2.57-0.26c1.83-0.19,3.59-0.37,5.44-0.56l0.89-8.09l8.29-0.89
			v-16.99l2.16-0.24c2.46-0.28,4.53-0.51,6.82-0.76v-87.15h121.44v121.82H750.3c0.1-0.81,0.19-1.62,0.29-2.47l0.51-4.28l8.19-0.89
			l0.85-8.42h12.7v15.95h136.83l1.68-5.56l6.93-1.69c0.18-1.91,0.37-3.96,0.59-6.3l0.17-1.9l7.16-1.09l0.87-8.93h9.35v-66.09
			l-5.32-0.04v0.01l-4.76-0.02v-4.73v-3.15h-3.13h-4.74v-4.74v-17.44h52.44l5.58-0.71v-17.95h10.1v-82.95h-53.62v-57.48h43.54
			v-17.21h10.07V702.8v-1.39v-4.37h4.87h3.82h14.12v-11.97l12.89-1.5v-45.85l-5.52-0.32
			C1011.36,637.09,1005.95,636.78,1000.23,636.44z M286.86,51.93l10.03-1.67l0.41-2.98c0.29-2.13,0.6-4.37,0.95-6.8l0.27-1.9
			l11.94-1.17c0.38-2.61,0.78-5.29,1.26-8.43l0.31-2.07h429.44l1.74,10.5h25.23V494.2l-12.09,1.32c-0.34,3.2-0.68,6.39-1.07,10.01
			l-0.23,2.17h-455.8l-0.68-6.02c-0.68-6.04-1.34-11.89-2.04-18.03c-2.55-0.8-4.99-1.56-7.93-2.47l-1.71-0.53V51.93z M286.79,529.21
			h520.14v43.37H342.11v24.04l-2.18,0.24c-4,0.42-7.26,0.77-10.69,1.14l-1.28,11.92l-12.19,1.33v24.99l-13.02,1.42l-1.23,12.11
			h-14.72V529.21z M146.9,715.05h16.96l0.96,8.9l8.05,0.89l0.92,8.06l7.08,1.06l0.78,7.93l8.37,0.88v73.18h-78.07v105l-2.42,0.01
			H54.4V706.81h91.59L146.9,715.05z M281.9,863.67V706.64h56.79l1.38,8.06l8.2,1.24v103.99h13.42v-112.9h64.49v170.51h-86.39
			l-0.91,8.5l-1.95,0.2c-2.13,0.22-4.12,0.41-6.19,0.61l-0.83,6.96l-1.92,0.2c-2.08,0.22-4.05,0.43-6.15,0.66l-0.84,7.95l-1.87,0.26
			c-1.7,0.24-3.34,0.47-5.15,0.72c-0.14,1.44-0.3,2.92-0.46,4.53l-0.37,3.58l-8.12,0.85l-0.92,8.26h-90.64l-1.2-7.94l-7.99-1.08
			V715.74h2.29l5.87-0.68l0.07-0.56c0.2-1.68,0.4-3.45,0.64-5.38l0.26-2.13h2.14c3.41,0,6.82-0.01,10.23-0.03
			c12.53-0.05,25.5-0.11,38.24,0.58c4.96,0.28,5.85,14.25,5.85,14.39c0.2,37.9,0.18,76.55,0.17,113.93l-0.01,27.81H281.9z
			 M497.88,912.53l-0.97,8.44h-56.08V750.63l8.27-0.87l0.81-6.88l6.98-0.91c0.2-1.95,0.4-3.94,0.64-6.18l0.2-1.95l8.12-0.84
			l0.85-8.06l8.08-0.89l0.95-8.09l8.12-0.89l0.96-8.35h90.4l1.41,7.98l0.32,0.05c1.79,0.27,3.58,0.54,5.61,0.85l2.05,0.32v192.56
			l0.2,2.95l-8.26,1.69l-0.95,7.81h-56.64V763.99h-12.2v147.74L497.88,912.53z M689.66,706.71l1.03,8.36h15.8l0.23,2.16
			c0.27,2.52,0.5,4.61,0.73,6.81l7.9,1l0.99,7.89c2,0.21,4,0.41,6.23,0.64l1.96,0.2l0.84,8.12c1.92,0.2,3.88,0.4,6.06,0.62
			l1.87,0.19l0.27,1.86c0.25,1.7,0.5,3.39,0.86,5.74l14.6-0.01c20.62-0.02,41.95-0.04,62.98,0.22c3.08,0.04,8.84,3.71,8.86,7.11
			c0.3,43.33,0.29,87.52,0.28,130.26l0,23.9l-8.28,0.78l-0.91,8.34h-54.22l-2.36,0.03l-0.05-4.88V807.65h-20.91v113.17h-57.43
			V763.99H654.9v156.83h-57.17V706.71H689.66z M970.17,706.77v56.62h-78.6v29.94h26.85v40.61h-26.86v29.94h78.67v57.06H834.15
			V706.77H970.17z M695.72,1016.31l-2.59,0l-30.8,0.01v2.32v9.52h32.93v21.71h-2.6h-59.69v-53.5v-1.54h29.17h3.68V981.8h-32.95v-29
			v-0.01h45.82l0.39,3.57c0.15,1.38,0.31,2.85,0.49,4.55h8.56v8.67h7.6L695.72,1016.31z M767.18,1038.64h-2.2l-0.23,2.84l-5.48,0.19
			l-0.94,8.22h-51.28h-3.12v-79.5l7.9-0.93l0.94-7.91l7.85-0.78l0.84-8.12h3.76h41.97V1038.64z M838.62,970.33l0,45.98l-33.39,0.01
			v11.84h3.4h29.53v2.53v19.18h-59.89h-2.4v-55.04h32.85V982.6v-0.8h-30.43h-2.52v-29h2.52h43.3l0.39,3.57
			c0.15,1.38,0.31,2.85,0.49,4.55h8.56v8.67h5.36h2.24L838.62,970.33z M901.92,1033.09v8.67h-8.56c-0.18,1.7-0.34,3.17-0.49,4.55
			l-0.39,3.57h-40.93h-4.89v-19.18v-9.82h32.95v-13.04h-27.86h-4.99v-29.52v-25.52h62.29v21.71h-32.93v11.84l33.39,0.01l0,46.72
			H901.92z M1000.16,674.7H518.12v-23.96H494l-0.21-2.21c-0.38-4.09-0.68-7.21-1.05-11.03h-25.17l-1.26-12.98l-2.26-0.24
			c-2.55-0.27-5.17-0.55-7.96-0.85l-1.92-0.21l-1.47-11.71l-23.48-1.3v-16.56h454.85l0.24,2.17c0.38,3.46,0.74,6.65,1.15,10.39h25
			l0.25,2.15c0.46,3.95,0.83,7.21,1.26,10.92h22.99l3.25,12.45l36.87,1.62l0.24,2.08c0.36,3.3,0.71,6.47,1.13,10.23h23.72V674.7z"></path>
		<path class="st2" d="M1017.06,632.54c-4.81-0.28-9.62-0.55-14.64-0.85l-2.34-12.29h-23.21c-0.43-3.93-0.8-7.21-1.25-11.2
			l-0.24-2.16h-24.94v-12.69h-29.48v-11.13h-27.49v-14.8l-59.21,0.02v-63.87h-52.68v-7.6l12.43-1.4V415.9l-3.98-374.42l-0.02-2.02
			l-8.48-1.49c-0.38-3.33-0.68-5.95-1.06-9.12L780.26,27l-4.6-0.69c-1.86-0.28-3.78-0.56-5.82-0.87l-1.34-12.75h-25
			c-0.32-2.89-0.62-5.44-0.92-8.1L742.04,0H182.52l-1.37,12.28h-24.98l-0.68,5.98c-0.28,2.41-0.53,4.67-0.8,7.06
			c-2.52,0.38-5.23,0.78-8.63,1.3l-1.97,0.3l-1.12,23.05l-3.34,0.42c-2.11,0.27-4.27,0.54-6.63,0.84l-1.92,0.25l-0.74,7.2
			c-0.16,1.52-0.32,3.12-0.5,4.84H91.62L90.13,76.6l-10.32,1.46l-0.71,6.53c-0.19,1.73-0.38,3.51-0.58,5.37l-2.14,0.21
			c-2.6,0.26-5.16,0.52-7.9,0.8l-1.97,0.2l-1.22,11.96l-12.26,1.33v325.59l2.16,0.25c3.17,0.36,6.33,0.73,9.96,1.14
			c0.35,3.02,0.72,6.21,1.16,10.01l0.23,1.92l11.99,1.31l1.22,10.33l10.29,1.17c0.36,3.3,0.72,6.56,1.16,10.54l0.24,2.17h38.28
			l1.3,12.65l2.09,0.1c11,0.53,10.25,5.34,10.47,13.31c0.06,2.03,0.08,2.95,0.1,4.11v4.12H15.62l-2.95,11.59
			c-2.92,0.71-5.89,1.44-9.13,2.23L0,517.86v170.16l5.85,0.51c2.7,0.23,5.35,0.47,8.17,0.72l0.6,12.66h19.65v244.55h8.36v11.02
			h61.72l0.03,0.78c0.04,0.88,0.08,1.78,0.12,2.71l-8.31,1.71v107.74h21.16v9.57h282.47l1-7.82c2.02-0.2,4.02-0.41,6.19-0.63
			l1.97-0.2l0.2-1.97c0.21-2.01,0.41-3.93,0.63-5.98h2.63v16.01h66.01l1.2-7.27c2.06-0.21,4.07-0.42,6.27-0.65l1.95-0.21l0.89-8.1
			l8.75-0.94v-17.01c2.21-0.25,4.23-0.47,6.63-0.74l2.35-0.26v-86.64h111.7v121.82h136.44l0.25-2.16c0.18-1.59,0.35-3.03,0.54-4.61
			l0.05-0.43l8.26-0.9l0.8-7.97h3.43v15.95h145.32l1.92-6.36l7.59-1.85l0.16-1.72c0.18-1.89,0.37-3.88,0.58-6.14l7.14-1.09l0.81-8.3
			h9.81v-75.79l-10.08-0.08v-7.88h-7.87v-12.43h47.73l10.3-1.3v-17.36h10.1v-92.69h-53.62v-47.74h41.11v-2.43h2.43v-14.77h10.07
			v-79.43h22.81v-12.51l12.89-1.5v-54.79L1017.06,632.54z M1022.3,683.57l-12.89,1.5v11.97h-14.12h-3.82h-4.87v4.37v1.39v73.67
			h-10.07v17.21h-43.54v57.48h53.62v82.95h-10.1v17.95l-5.58,0.71h-52.44v17.44v4.74h4.74h3.13v3.15v4.73l4.76,0.02v-0.01l5.32,0.04
			v66.09h-9.35l-0.87,8.93l-7.16,1.09l-0.17,1.9c-0.21,2.34-0.41,4.39-0.59,6.3l-6.93,1.69l-1.68,5.56H772.84v-15.95h-12.7
			l-0.85,8.42l-8.19,0.89l-0.51,4.28c-0.1,0.85-0.2,1.66-0.29,2.47H623.07V952.71H501.63v87.15c-2.29,0.26-4.35,0.49-6.82,0.76
			l-2.16,0.24v16.99l-8.29,0.89l-0.89,8.09c-1.85,0.2-3.61,0.38-5.44,0.56l-2.57,0.26l-1.12,6.87h-57v-16.01h-11.88l-0.25,2.36
			c-0.23,2.13-0.43,4.07-0.64,6.02c-2.09,0.21-4.07,0.42-6.14,0.62l-1.93,0.19l-0.95,7.41H122.23v-9.57h-21.16v-98.9l8.48-1.74
			l-0.09-2.07c-0.07-1.7-0.14-3.28-0.21-4.8l-0.24-5.43H47.5V941.6h-8.36V704.12v-2.69v-4.38h-4.87h-7.69h-7.32l-0.58-12.26
			l-2.11-0.19c-3.65-0.33-6.93-0.61-10.3-0.91l-1.4-0.12V521.69c3.69-0.9,7.04-1.72,10.38-2.53l1.42-0.35l2.74-10.76h124.27h4.84
			v-14.96l0,0c0.19-7.02-0.61-14.78-13.08-16.15l-1.33-12.92H95.8c-0.38-3.46-0.71-6.43-1.05-9.51l-0.3-2.73l-10.32-1.18
			l-1.23-10.35l-11.98-1.31c-0.44-3.74-0.8-6.91-1.16-10l-0.22-1.93l-1.93-0.22c-3.6-0.4-6.71-0.76-9.72-1.1V108.82l11.83-1.29
			l1.22-11.93c2.01-0.2,3.95-0.4,5.92-0.59l6.08-0.61l0.21-1.97c0.27-2.57,0.54-4.99,0.79-7.32l0.3-2.77l10.3-1.45l1.42-12.5h38.29
			l0.22-2.19c0.26-2.59,0.5-4.87,0.72-7.02l0.35-3.37c1.63-0.21,3.18-0.4,4.7-0.59l7.4-0.94l1.12-23.15
			c3.04-0.46,5.52-0.83,7.91-1.19l2.44-0.36l0.21-1.86c0.35-3.11,0.66-5.89,1.01-8.91l0.19-1.66h25l1.37-12.28H737.7l0.03,0.28
			c0.38,3.29,0.74,6.44,1.17,10.25l0.24,2.16h24.98l1.28,12.13l1.86,0.28c2.74,0.41,5.27,0.79,7.69,1.15l0.91,0.14
			c0.33,2.83,0.63,5.39,1.01,8.76l0.24,2.1l8.07,1.42l3.96,372.38v74.28l-12.43,1.4v16.82h52.68v63.87h38.41v0.02l20.81-0.03v14.8
			h27.49v11.13h29.48v12.69h25.45c0.42,3.74,0.78,7.03,1.24,11.19l0.24,2.17h23.54l2.29,12.06l1.9,0.11
			c5.72,0.34,11.13,0.65,16.54,0.96l5.52,0.32V683.57z"></path>
		<path class="st2" d="M302.74,637.66l13.02-1.42v-24.99l12.19-1.33l1.28-11.92c3.43-0.37,6.69-0.72,10.69-1.14l2.18-0.24v-24.04
			h464.81v-43.37H286.79v120.56h14.72L302.74,637.66z M297.11,644.9h-5.45V534.08h510.4v33.63H337.24v24.54
			c-3.76,0.4-6.95,0.74-10.48,1.13l-1.95,0.21l-1.28,11.91l-12.64,1.38v24.99l-12.6,1.38L297.11,644.9z"></path>
		<path class="st2" d="M975.32,635.45l-0.24-2.08l-36.87-1.62l-3.25-12.45h-22.99c-0.42-3.71-0.8-6.97-1.26-10.92l-0.25-2.15h-25
			c-0.41-3.74-0.76-6.93-1.15-10.39l-0.24-2.17H429.22v16.56l23.48,1.3l1.47,11.71l1.92,0.21c2.79,0.3,5.42,0.58,7.96,0.85
			l2.26,0.24l1.26,12.98h25.17c0.37,3.82,0.67,6.94,1.05,11.03l0.21,2.21h24.13v23.96h482.04v-29.02h-23.72
			C976.03,641.92,975.68,638.75,975.32,635.45z M995.29,669.83h-472.3v-23.96h-24.56c-0.31-3.32-0.59-6.14-0.92-9.58l-0.35-3.65
			h-25.17l-1.22-12.53l-6.21-0.66c-1.95-0.21-3.95-0.42-6.04-0.64l-1.5-11.92l-22.94-1.27v-7.08h445.62
			c0.37,3.3,0.72,6.51,1.14,10.39l0.24,2.17h25.03c0.43,3.73,0.81,6.99,1.25,10.92l0.24,2.16h23.58l3.2,12.29l36.3,1.59
			c0.35,3.2,0.71,6.42,1.14,10.33l0.24,2.17h23.2V669.83z"></path>
		<path class="st2" d="M54.4,706.81v214.15h55.14l2.42-0.01v-105h78.07v-73.18l-8.37-0.88l-0.78-7.93l-7.08-1.06l-0.92-8.06
			l-8.05-0.89l-0.96-8.9H146.9l-0.91-8.24H54.4z M159.51,719.89l0.92,8.45l8.07,0.89l0.91,7.91l7.02,1.05l0.8,8.11l7.96,0.84v63.98
			h-78.07v105.01H59.24V711.65h82.42l0.91,8.24H159.51z"></path>
		<path class="st2" d="M834.15,920.93h136.08v-57.06h-78.67v-29.94h26.86v-40.61h-26.85v-29.94h78.6v-56.62H834.15V920.93z
			 M839,711.61h126.33v46.94h-78.6v39.62h26.85v30.93h-26.86v39.62h78.67v47.38H839V711.61z"></path>
		<path class="st2" d="M269.86,721.94c0-0.14-0.89-14.11-5.85-14.39c-12.74-0.69-25.7-0.63-38.24-0.58
			c-3.41,0.01-6.82,0.03-10.23,0.03h-2.14l-0.26,2.13c-0.23,1.93-0.44,3.69-0.64,5.38l-0.07,0.56l-5.87,0.68h-2.29V911.8l7.99,1.08
			l1.2,7.94h90.64l0.92-8.26l8.12-0.85l0.37-3.58c0.16-1.61,0.32-3.09,0.46-4.53c1.82-0.25,3.45-0.48,5.15-0.72l1.87-0.26l0.84-7.95
			c2.1-0.22,4.08-0.43,6.15-0.66l1.92-0.2l0.83-6.96c2.07-0.2,4.06-0.4,6.19-0.61l1.95-0.2l0.91-8.5h86.39V707.03h-64.49v112.9
			h-13.42V715.94l-8.2-1.24l-1.38-8.06H281.9v157.04h-11.88l0.01-27.81C270.04,798.49,270.05,759.84,269.86,721.94z M286.74,868.51
			V711.48h47.87l1.28,7.48l7.54,1.14v104.67h23.1v-112.9h54.81V872.7h-85.9l-0.96,8.91c-2.05,0.2-4.02,0.4-6.15,0.6l-1.95,0.19
			l-0.83,7c-2.01,0.22-4,0.43-6.17,0.65l-1.95,0.2l-0.85,8.09c-1.62,0.23-3.27,0.46-5.15,0.71l-1.89,0.26l-0.19,1.9
			c-0.19,1.95-0.39,3.9-0.62,6.09l-8.08,0.85l-0.87,7.83h-82.15l-1.12-7.41l-7.39-1V720.32l7.68-0.89l0.52-4.36
			c0.12-1.04,0.25-2.11,0.38-3.23c2.7,0,5.4-0.02,8.1-0.03c12.18-0.05,24.76-0.11,37.09,0.53c0.85,1.65,2.12,6.47,2.14,9.63
			c0.2,37.88,0.18,76.52,0.17,113.89l-0.01,32.65H286.74z"></path>
		<path class="st2" d="M506.75,763.99h12.2v156.91h56.64l0.95-7.81l8.26-1.69l-0.2-2.95V715.9l-2.05-0.32
			c-2.03-0.31-3.82-0.58-5.61-0.85l-0.32-0.05l-1.41-7.98h-90.4l-0.96,8.35l-8.12,0.89l-0.95,8.09l-8.08,0.89l-0.85,8.06l-8.12,0.84
			l-0.2,1.95c-0.23,2.24-0.44,4.23-0.64,6.18l-6.98,0.91l-0.81,6.88l-8.27,0.87v170.34h56.08l0.97-8.44l8.87-0.81V763.99z
			 M501.9,907.31l-8.39,0.76l-0.93,8.06h-46.92V754.99l7.78-0.82l0.83-6.98l7.04-0.92l0.19-1.91c0.2-2,0.4-3.95,0.62-6.11l8.12-0.84
			l0.85-8.09l8.03-0.89l0.95-8.08l8.13-0.89l0.91-7.9h82.02l1.3,7.4l3.76,0.57c1.16,0.17,2.32,0.35,3.54,0.53v187.44l-7.6,1.55
			l-0.85,7.01h-47.51V759.15H501.9V907.31z"></path>
		<path class="st2" d="M597.72,920.81h57.17V763.99h22.12v156.84h57.43V807.65h20.91v108.41l0.05,4.88l2.36-0.03h54.22l0.91-8.34
			l8.28-0.78l0-23.9c0.01-42.74,0.02-86.94-0.28-130.26c-0.02-3.4-5.78-7.07-8.86-7.11c-21.03-0.26-42.35-0.24-62.98-0.22
			l-14.6,0.01c-0.35-2.35-0.61-4.04-0.86-5.74l-0.27-1.86l-1.87-0.19c-2.18-0.22-4.14-0.43-6.06-0.62l-0.84-8.12l-1.96-0.2
			c-2.23-0.23-4.23-0.43-6.23-0.64l-0.99-7.89l-7.9-1c-0.23-2.2-0.45-4.28-0.73-6.81l-0.23-2.16h-15.8l-1.03-8.36h-91.93V920.81z
			 M602.57,711.55h82.81l1.03,8.36h15.26l0.52,0.4c0.23,2.1,0.43,4,0.65,6.13l0.2,1.91l7.98,1.01l1,7.98l1.91,0.2
			c2.06,0.21,4.05,0.42,6.2,0.64l0.84,8.12l1.97,0.2c2.01,0.2,3.98,0.4,6.14,0.63c0.24,1.62,0.51,3.44,0.89,5.95l0.31,2.06
			l18.77-0.01c20.61-0.02,41.91-0.04,62.91,0.22c1.03,0.01,3.52,1.69,4.08,2.57c0.3,43.22,0.29,87.31,0.28,129.96l0,19.49
			l-7.82,0.73l-0.86,7.95h-47.45V802.81H729.6v113.17h-47.75V759.15h-31.8v156.83h-47.49V711.55z"></path>
		<path class="st0" d="M112.28,763.98v29.32h13.06c0.37-1.54,0.71-2.96,1.03-4.29v-1.08l5.83-3.55v-20.39H112.28z"></path>
		<path class="st2" d="M107.44,798.13h19.8l1.91,0l0.45-1.85c0.48-2,0.92-3.8,1.32-5.47l6.13-3.72v-27.96h-29.6V798.13z
			 M132.21,784.37l-5.83,3.55V789c-0.32,1.34-0.66,2.75-1.03,4.29h-13.06v-29.32h19.92V784.37z"></path>
		<path class="st1" d="M716.98,965.86l-0.93,7.82l-7.43,0.87v70.62h45.52l0.88-7.75l7.47-0.88v-79.21h-36.79l-0.8,7.71
			L716.98,965.86z M729.78,977.45h11.56v55.33h-11.56V977.45z"></path>
		<path class="st1" d="M683.43,965.61h-8.07l-0.23-2.09c-0.26-2.37-0.47-4.28-0.65-6.03h-36.9v19.61h32.95v22.44h-32.85v45.64h52.89
			v-12.32h-32.93v-21.24h33.39v-37.34h-7.6V965.61z"></path>
		<path class="st2" d="M721.45,952.64l-0.84,8.12l-7.85,0.78l-0.94,7.91l-7.9,0.93v79.5h3.12h51.28l0.94-8.22l5.48-0.19l0.23-2.84
			h2.2v-86h-41.97H721.45z M762.48,957.34v79.21l-7.47,0.88l-0.88,7.75h-45.52v-70.62l7.43-0.87l0.93-7.82l7.91-0.81l0.8-7.71
			H762.48z"></path>
		<path class="st2" d="M688.13,960.92h-8.56c-0.19-1.7-0.34-3.17-0.49-4.55l-0.39-3.57h-45.82v0.01v29h32.95v13.04h-3.68h-29.17
			v1.54v53.5h59.69h2.6v-21.71h-32.93v-9.52v-2.32l30.8-0.01l2.59,0l0-46.72h-7.6V960.92z M691.03,974.29v37.34h-33.39v21.24h32.93
			v12.32h-52.89v-45.64h32.85V977.1h-32.95v-19.61h36.9c0.19,1.75,0.39,3.66,0.65,6.03l0.23,2.09h8.07v8.67H691.03z"></path>
		<path class="st1" d="M871.42,969.81h32.93v-12.32h-52.89v45.64h32.85v22.44h-32.95v19.61h36.9c0.19-1.75,0.39-3.66,0.65-6.03
			l0.23-2.09h8.07v-8.67h7.6v-37.34h-33.39V969.81z"></path>
		<path class="st2" d="M876.12,986.35v-11.84h32.93v-21.71h-62.29v25.52v29.52h4.99h27.86v13.04h-32.95v9.82v19.18h4.89h40.93
			l0.39-3.57c0.15-1.38,0.31-2.85,0.49-4.55h8.56v-8.67h7.6l0-46.72L876.12,986.35z M904.82,1028.39h-7.6v8.67h-8.07l-0.23,2.09
			c-0.26,2.37-0.47,4.28-0.65,6.03h-36.9v-19.61h32.95v-22.44h-32.85v-45.64h52.89v12.32h-32.93v21.24h33.39V1028.39z"></path>
		<path class="st2" d="M741.34,977.45h-11.56v55.33h11.56V977.45z M736.64,1028.08h-2.16v-45.93h2.16V1028.08z"></path>
		<path class="st1" d="M826.32,965.61h-8.07l-0.23-2.09c-0.26-2.37-0.47-4.28-0.65-6.03h-36.9v19.61h32.95v22.44h-32.85v45.64h52.89
			v-12.32h-32.93v-21.24h33.39v-37.34h-7.6V965.61z"></path>
		<path class="st2" d="M831.02,969.59v-8.67h-8.56c-0.19-1.7-0.34-3.17-0.49-4.55l-0.39-3.57h-43.3h-2.52v29h2.52h30.43v0.8v12.24
			h-32.85v55.04h2.4h59.89v-19.18v-2.53h-29.53h-3.4v-11.84l33.39-0.01l0-45.98l0-0.74h-2.24H831.02z M833.92,1011.62h-33.39v21.24
			h32.93v12.32h-52.89v-45.64h32.85V977.1h-32.95v-19.61h36.9c0.19,1.75,0.39,3.66,0.65,6.03l0.23,2.09h8.07v8.67h7.6V1011.62z"></path>
	</g>
	<g>
		<path class="st1" d="M442.27,977.4h20.79v25.27h20.71v-45.24h-45.79v16.85h-8.72v7.61h-8.71v63.28h46.1l0.82-7.76l1.89-0.21
			c2.2-0.24,4.25-0.45,6.24-0.66c0.26-1.67,0.5-3.2,0.74-4.74l0.4-2.56l7.19-1.15v-10.96h-20.98v15.33h-20.66V977.4z"></path>
		<polygon class="st1" points="288.5,965.58 288.5,965.58 288.49,965.47 280.51,965.47 278.92,957.6 233.9,957.6 233.9,1045.16 
			254.64,1045.16 254.64,977.53 268.46,977.53 268.46,1045.18 297.04,1045.18 297.04,994.9 310.86,994.9 310.86,1045.05 
			331.08,1045.05 331.08,973.97 288.5,973.97 		"></polygon>
		<path class="st1" d="M170.1,971.85c-0.24-2.2-0.45-4.14-0.65-6.05c-2.07-0.22-3.99-0.42-5.98-0.64l-1.88-0.21l-0.82-7.55h-36.8
			v87.75h19.64v-67.65h13.81v67.49h20.23v-50.14h22.15v50.18h20.67v-71.1h-50.15L170.1,971.85z"></path>
		<path class="st1" d="M399.41,974.29h-8.71v-17.4h-45.82v88.26h54.18c0.24-2.02,0.46-3.89,0.7-5.88l0.22-1.83l7.03-0.87v-54.68
			h-7.62V974.29z M386.43,1032.65h-12.77v-55.29h12.77V1032.65z"></path>
		<path class="st2" d="M293.2,965.58l0.01-4.7l-8.85-0.11l-1.59-7.87H229.2v96.96h30.14v-67.64h4.42v67.65h37.98V999.6h4.42v50.15
			h29.62v-80.47H293.2V965.58z M331.08,973.97v71.07h-20.22V994.9h-13.82v50.28h-28.58v-67.65h-13.82v67.64H233.9V957.6h45.02
			l1.59,7.87h7.98l0,0.11h0v8.39H331.08z"></path>
		<path class="st2" d="M404.11,974.16h0.05l0.07-4.7l-4.7,0.13h-4.12v-12.82h0.07l0.05-4.7l-4.7,0.11h-50.64v97.66h63.06l0.25-2.07
			c0.26-2.2,0.49-4.14,0.73-6.12l7.51-0.93v-49.13v-9.84v-4.56l-7.62,0V974.16z M407.03,981.89v54.68l-7.03,0.87l-0.22,1.83
			c-0.24,1.99-0.46,3.86-0.7,5.88h-54.18v-88.26h45.82v17.4h8.71v7.6H407.03z"></path>
		<path class="st2" d="M458.23,1027.77h-11.26V982.1h11.39v25.27h30.11v-54.64h-55.19v16.85h-4.16v-0.05l-4.7-0.06l0.08,4.7h0.05
			v3.03h-4.13v0l-4.7,0l0.05,4.56h0.06v68.13h55.03l0.86-8.19c1.5-0.16,2.95-0.31,4.36-0.46l3.57-0.38l0.28-1.78
			c0.33-2.1,0.61-3.92,0.89-5.72l5.59-0.9h2.17v-20.01h-30.38V1027.77z M462.93,1017.14h20.98v10.96l-7.19,1.15l-0.4,2.56
			c-0.24,1.54-0.47,3.06-0.74,4.74c-2,0.21-4.04,0.43-6.24,0.66l-1.89,0.21l-0.82,7.76h-46.1V981.9h8.71v-7.61h8.72v-16.85h45.79
			v45.24h-20.71V977.4h-20.79v55.07h20.66V1017.14z"></path>
		<path class="st2" d="M173.92,963.42l-0.2-1.89l-2.96-0.32c-1.71-0.18-3.31-0.35-4.91-0.52l-0.87-7.98h-45.72v97.15h29.04v-67.65
			h4.41v67.49h29.63v-50.14h12.75v50.18h30.07v-80.5h-50.63C174.32,967.2,174.12,965.34,173.92,963.42z M220.48,1045.05h-20.67
			v-50.18h-22.15v50.14h-20.23v-67.49h-13.81v67.65h-19.64v-87.75h36.8l0.82,7.55l1.88,0.21c1.99,0.22,3.91,0.42,5.98,0.64
			c0.2,1.91,0.41,3.85,0.65,6.05l0.23,2.09h50.15V1045.05z"></path>
		<path class="st2" d="M373.66,1032.65h12.77v-55.29h-12.77V1032.65z M378.36,982.07h3.37v45.88h-3.37V982.07z"></path>
	</g>
</g>
</svg><style>@media (prefers-color-scheme: light) { :root { filter: none; } }
@media (prefers-color-scheme: dark) { :root { filter: none; } }
</style></svg>